#N canvas 160 160 700 276 12;
#X obj 79 46 inlet;
#X obj 80 169 outlet~;
#X obj 79 71 pack f f f;
#X msg 79 95 \$1 \, \$2 \$3;
#X obj 79 119 vline~;
#X text 163 96 start \, end duration;
#X obj 363 27 loadbang;
#X obj 363 104 soundfiler;
#X floatatom 363 131 8 0 0 0 - - - 0;
#X obj 79 142 tabread4~ doublebass;
#X msg 363 65 read -resize samples/doublebass.wav doublebass;
#X connect 0 0 2 0;
#X connect 2 0 3 0;
#X connect 3 0 4 0;
#X connect 4 0 9 0;
#X connect 6 0 10 0;
#X connect 7 0 8 0;
#X connect 9 0 1 0;
#X connect 10 0 7 0;
