#N canvas 192 192 763 276 12;
#X obj 79 46 inlet;
#X obj 80 169 outlet~;
#X obj 79 71 pack f f f;
#X msg 79 95 \$1 \, \$2 \$3;
#X obj 79 119 vline~;
#X obj 79 143 tabread4~ geiger;
#X text 163 96 start \, end duration;
#X obj 363 27 loadbang;
#X obj 363 104 soundfiler;
#X floatatom 363 131 5 0 0 0 - - - 0;
#X msg 363 65 read -resize samples/geiger.wav geiger;
#X connect 0 0 2 0;
#X connect 2 0 3 0;
#X connect 3 0 4 0;
#X connect 4 0 5 0;
#X connect 5 0 1 0;
#X connect 7 0 10 0;
#X connect 8 0 9 0;
#X connect 10 0 8 0;
