#N canvas 160 160 1525 642 12;
#X obj 344 597 dac~;
#X text 552 400 length of geiger sound file: ca 0.033 sec;
#X msg 464 400 0 \, 1585 33;
#X obj 343 521 geiger_counter;
#X obj 343 285 route geiger;
#N canvas 0 50 450 250 (subpatch) 0;
#X array geiger 1585 float 2;
#X coords 0 1 1585 -1 200 140 1;
#X restore 713 50 graph;
#X msg 343 413 stop;
#X obj 343 334 pack f f f f f;
#X msg 463 361 \$3 \$4 \$5;
#X msg 343 363 \$1;
#X obj 343 389 delay;
#X obj 343 462 metro;
#X msg 409 362 \$2;
#X obj 48 77 tgl 15 0 empty empty empty 17 7 0 10 #fcfcfc #000000 #000000
0 1;
#X msg 48 108 \; pd dsp \$1;
#X text 40 32 turn audio on and off;
#X msg 343 95 listen 6666;
#X obj 343 130 netreceive -u -b;
#X obj 343 170 oscparse;
#X text 277 31 receive OSC (https://hvc.berlin/Puredata/using-osc-in-pure-data/)
;
#X obj 343 210 list trim;
#X obj 1107 294 route beep;
#X obj 1086 344 print;
#X obj 344 554 *~ 0.4;
#X connect 2 0 3 0;
#X connect 3 0 23 0;
#X connect 4 0 7 0;
#X connect 6 0 11 0;
#X connect 7 0 8 0;
#X connect 7 0 9 0;
#X connect 7 0 12 0;
#X connect 8 0 3 0;
#X connect 9 0 10 1;
#X connect 9 0 10 0;
#X connect 10 0 6 0;
#X connect 11 0 3 0;
#X connect 12 0 11 1;
#X connect 12 0 11 0;
#X connect 13 0 14 0;
#X connect 16 0 17 0;
#X connect 17 0 18 0;
#X connect 18 0 20 0;
#X connect 20 0 4 0;
#X connect 20 0 21 0;
#X connect 21 0 22 0;
#X connect 23 0 0 0;
#X connect 23 0 0 1;
