#N canvas 186 224 1638 642 12;
#X obj 344 597 dac~;
#X text 552 400 length of geiger sound file: ca 0.033 sec;
#X msg 464 400 0 \, 1585 33;
#X obj 343 521 geiger_counter;
#X obj 343 285 route geiger;
#N canvas 0 50 450 250 (subpatch) 0;
#X array geiger 1585 float 2;
#X coords 0 1 1585 -1 200 140 1;
#X restore 713 50 graph;
#X msg 343 413 stop;
#X obj 343 334 pack f f f f f;
#X msg 463 361 \$3 \$4 \$5;
#X msg 343 363 \$1;
#X obj 343 389 delay;
#X obj 343 462 metro;
#X msg 409 362 \$2;
#X text 40 32 turn audio on and off;
#X msg 343 95 listen 6666;
#X obj 343 130 netreceive -u -b;
#X obj 343 170 oscparse;
#X text 277 31 receive OSC (https://hvc.berlin/Puredata/using-osc-in-pure-data/)
;
#X obj 343 210 list trim;
#X obj 344 554 *~ 0.4;
#N canvas 0 50 450 250 (subpatch) 0;
#X array strings 284770 float 2;
#X coords 0 1 284770 -1 200 140 1 0 0;
#X restore 969 53 graph;
#X obj 962 589 dac~;
#X msg 961 405 stop;
#X obj 961 326 pack f f f f f;
#X msg 1081 353 \$3 \$4 \$5;
#X msg 961 355 \$1;
#X obj 961 381 delay;
#X obj 961 454 metro;
#X msg 1027 354 \$2;
#X obj 961 282 route string_sound;
#X msg 1279 423 0 \, 284770 2966;
#X obj 1400 491 hsl 128 15 0 5000 0 0 empty empty empty -2 -8 0 10
#fcfcfc #000000 #000000 0 1;
#X floatatom 1397 535 8 0 0 0 - - - 0;
#X obj 1300 520 pack f f f;
#X msg 1320 476 0;
#X msg 1367 465 284770;
#X obj 48 69 bng 15 250 50 1 empty empty empty 17 7 0 10 #fcfcfc #000000
#000000;
#X obj 343 70 bng 15 250 50 1 empty empty empty 17 7 0 10 #fcfcfc #000000
#000000;
#X msg 48 108 \; pd dsp 1;
#X obj 962 546 *~ 0.8;
#X obj 145 337 print oscmessage;
#X obj 907 1294 dac~;
#X msg 1057 1007 \$3 \$4 \$5;
#X obj 907 1251 *~ 0.8;
#X obj 1005 1294 dac~;
#X obj 1005 1251 *~ 0.8;
#X msg 952 1007 \$2;
#X obj 1073 1127 pipe f f f 1000;
#X obj 1076 1172 pack f f f;
#X listbox 1059 1048 20 0 0 0 - - - 0;
#X msg 788 1027 stop;
#X obj 788 1003 delay;
#X msg 874 1012 \$6;
#X floatatom 744 1095 9 0 0 0 - - - 0;
#X obj 849 1078 metro;
#X obj 906 1218 cello2;
#X obj 1004 1218 cello2;
#X obj 446 1131 hsl 128 15 0 5000 0 0 empty empty empty -2 -8 0 10
#fcfcfc #000000 #000000 0 1;
#X floatatom 443 1175 8 0 0 0 - - - 0;
#X obj 346 1160 pack f f f;
#X msg 366 1116 0;
#X msg 413 1105 48004;
#X msg 712 1186 0 \, 48004 1000;
#X text 1202 393 length of string sound file: ca 2.966 sec;
#X obj 961 513 strings;
#X connect 2 0 3 0;
#X connect 3 0 19 0;
#X connect 4 0 7 0;
#X connect 6 0 11 0;
#X connect 7 0 8 0;
#X connect 7 0 9 0;
#X connect 7 0 12 0;
#X connect 8 0 3 0;
#X connect 9 0 10 1;
#X connect 9 0 10 0;
#X connect 10 0 6 0;
#X connect 11 0 3 0;
#X connect 12 0 11 1;
#X connect 12 0 11 0;
#X connect 14 0 15 0;
#X connect 15 0 16 0;
#X connect 16 0 18 0;
#X connect 18 0 29 0;
#X connect 18 0 4 0;
#X connect 19 0 0 0;
#X connect 19 0 0 1;
#X connect 22 0 27 0;
#X connect 23 0 24 0;
#X connect 23 0 25 0;
#X connect 23 0 28 0;
#X connect 24 0 64 0;
#X connect 25 0 26 1;
#X connect 25 0 26 0;
#X connect 26 0 22 0;
#X connect 27 0 64 0;
#X connect 28 0 27 1;
#X connect 28 0 27 0;
#X connect 29 0 23 0;
#X connect 30 0 64 0;
#X connect 31 0 32 0;
#X connect 31 0 33 2;
#X connect 32 0 34 0;
#X connect 33 0 64 0;
#X connect 34 0 33 0;
#X connect 35 0 33 1;
#X connect 36 0 38 0;
#X connect 37 0 14 0;
#X connect 39 0 21 0;
#X connect 39 0 21 1;
#X connect 42 0 49 0;
#X connect 43 0 41 0;
#X connect 43 0 41 1;
#X connect 45 0 44 0;
#X connect 45 0 44 1;
#X connect 46 0 47 3;
#X connect 46 0 54 0;
#X connect 47 0 48 0;
#X connect 47 1 48 1;
#X connect 47 2 48 2;
#X connect 48 0 56 0;
#X connect 49 0 47 0;
#X connect 49 0 55 0;
#X connect 50 0 54 0;
#X connect 51 0 50 0;
#X connect 52 0 53 0;
#X connect 52 0 54 1;
#X connect 54 0 49 0;
#X connect 55 0 43 0;
#X connect 56 0 45 0;
#X connect 57 0 58 0;
#X connect 57 0 59 2;
#X connect 58 0 60 0;
#X connect 59 0 55 0;
#X connect 60 0 59 0;
#X connect 61 0 59 1;
#X connect 62 0 55 0;
#X connect 64 0 39 0;
