#N canvas 186 224 1638 642 12;
#X obj 344 597 dac~;
#X text 552 400 length of geiger sound file: ca 0.033 sec;
#X msg 464 400 0 \, 1585 33;
#X obj 343 521 geiger_counter;
#X obj 343 285 route geiger;
#N canvas 0 50 450 250 (subpatch) 0;
#X array geiger 1585 float 2;
#X coords 0 1 1585 -1 200 140 1;
#X restore 713 50 graph;
#X msg 343 413 stop;
#X obj 343 334 pack f f f f f;
#X msg 463 361 \$3 \$4 \$5;
#X msg 343 363 \$1;
#X obj 343 389 delay;
#X obj 343 462 metro;
#X msg 409 362 \$2;
#X text 40 32 turn audio on and off;
#X msg 343 95 listen 6666;
#X obj 343 130 netreceive -u -b;
#X obj 343 170 oscparse;
#X text 277 31 receive OSC (https://hvc.berlin/Puredata/using-osc-in-pure-data/)
;
#X obj 343 210 list trim;
#X obj 1107 294 route beep;
#X obj 344 554 *~ 0.4;
#N canvas 0 50 450 250 (subpatch) 0;
#X array schrill 24476 float 2;
#X coords 0 1 24476 -1 200 140 1 0 0;
#X restore 1029 48 graph;
#X obj 1108 601 dac~;
#X msg 1107 417 stop;
#X obj 1107 338 pack f f f f f;
#X msg 1227 365 \$3 \$4 \$5;
#X msg 1107 367 \$1;
#X obj 1107 393 delay;
#X obj 1107 466 metro;
#X msg 1173 366 \$2;
#X obj 1108 558 *~ 0.4;
#X text 1316 404 length of schrill_kurz sound file: ca 0.555 sec;
#X msg 1228 404 0 \, 24476 555;
#X obj 1107 525 schrill;
#X obj 1557 279 route midi;
#X obj 1557 303 mtof;
#X obj 1557 327 osc~;
#X obj 1558 365 dac~;
#N canvas 0 50 450 250 (subpatch) 0;
#X array sound5 436992 float 2;
#X coords 0 1 436992 -1 200 140 1 0 0;
#X restore 1317 48 graph;
#N canvas 0 50 450 250 (subpatch) 0;
#X array sound6 284770 float 2;
#X coords 0 1 284770 -1 200 140 1 0 0;
#X restore 1562 51 graph;
#X obj 1723 585 dac~;
#X msg 1722 401 stop;
#X obj 1722 322 pack f f f f f;
#X msg 1842 349 \$3 \$4 \$5;
#X msg 1722 351 \$1;
#X obj 1722 377 delay;
#X obj 1722 450 metro;
#X msg 1788 350 \$2;
#X obj 1722 278 route string_sound;
#X text 1963 389 length of sound5 sound file: ca 4.552 sec length of
sound6 sound file: ca 2.966 sec;
#X obj 2004 509 sound6;
#X msg 2040 419 0 \, 284770 2966;
#X obj 2004 541 *~ 0.4;
#X obj 2004 582 dac~;
#X obj 2161 487 hsl 128 15 0 5000 0 0 empty empty empty -2 -8 0 10
#fcfcfc #000000 #000000 0 1;
#X floatatom 2158 531 8 0 0 0 - - - 0;
#X obj 2061 516 pack f f f;
#X msg 2081 472 0;
#X msg 2128 461 284770;
#X obj 48 69 bng 15 250 50 1 empty empty empty 17 7 0 10 #fcfcfc #000000
#000000;
#X obj 343 70 bng 15 250 50 1 empty empty empty 17 7 0 10 #fcfcfc #000000
#000000;
#X msg 48 108 \; pd dsp 1;
#X obj 1833 578 dac~;
#X obj 1833 537 *~ 0.6;
#X obj 1723 542 *~ 0.8;
#X obj 721 882 dac~;
#X msg 871 595 \$3 \$4 \$5;
#X obj 721 839 *~ 0.8;
#X obj 720 806 cello;
#N canvas 0 50 450 250 (subpatch) 0;
#X array cello 168002 float 2;
#X coords 0 1 168002 -1 200 140 1 0 0;
#X restore 1800 54 graph;
#X msg 1242 722 0 \, 168002 3500;
#X obj 700 523 route cello;
#X obj 819 882 dac~;
#X obj 819 839 *~ 0.8;
#N canvas 0 50 450 250 (subpatch) 0;
#X array sound6f 284770 float 2;
#X coords 0 1 284770 -1 200 140 1 0 0;
#X restore 2365 48 graph;
#X obj 506 780 print p1;
#X obj 958 333 print oscmessage;
#X msg 766 595 \$2;
#X obj 887 715 pipe f f f 1000;
#X obj 890 760 pack f f f;
#X obj 818 806 cello;
#X listbox 873 636 20 0 0 0 - - - 0;
#X msg 602 615 stop;
#X msg 602 565 \$1;
#X obj 602 591 delay;
#X obj 1255 868 *~ 0.4;
#X obj 1255 909 dac~;
#X obj 1412 814 hsl 128 15 0 5000 0 0 empty empty empty -2 -8 0 10
#fcfcfc #000000 #000000 0 1;
#X floatatom 1409 858 8 0 0 0 - - - 0;
#X obj 1312 843 pack f f f;
#X msg 1332 799 0;
#X msg 1379 788 168002;
#X obj 1255 836 cello;
#X msg 688 600 \$6;
#X floatatom 558 683 9 0 0 0 - - - 0;
#X obj 700 550 pack f f f f f f;
#X obj 663 666 metro;
#X floatatom 471 703 5 0 0 0 - - - 0;
#X obj 516 648 delay 5000;
#X obj 186 877 dac~;
#X obj 186 834 *~ 0.8;
#X obj 185 801 cello;
#X msg 187 711 stop;
#X obj 187 632 pack f f f f f;
#X msg 307 659 \$3 \$4 \$5;
#X msg 187 661 \$1;
#X obj 187 687 delay;
#X obj 187 760 metro;
#X msg 253 660 \$2;
#X msg 308 698 0 \, 168002 3500;
#X obj 187 588 route cello;
#X msg 2437 430 0 \, 284770 2966;
#X obj 2401 552 *~ 0.4;
#X obj 2401 593 dac~;
#X obj 2558 498 hsl 128 15 0 5000 0 0 empty empty empty -2 -8 0 10
#fcfcfc #000000 #000000 0 1;
#X floatatom 2555 542 8 0 0 0 - - - 0;
#X obj 2458 527 pack f f f;
#X msg 2478 483 0;
#X msg 2525 472 284770;
#X obj 2401 520 sound6f;
#X obj 1629 587 dac~;
#X obj 1628 511 sound5;
#X obj 1629 544 *~ 0.8;
#X obj 1833 505 sound6;
#X obj 1722 509 sound5;
#X obj 907 1294 dac~;
#X msg 1057 1007 \$3 \$4 \$5;
#X obj 907 1251 *~ 0.8;
#X obj 1005 1294 dac~;
#X obj 1005 1251 *~ 0.8;
#X msg 952 1007 \$2;
#X obj 1073 1127 pipe f f f 1000;
#X obj 1076 1172 pack f f f;
#X listbox 1059 1048 20 0 0 0 - - - 0;
#X msg 788 1027 stop;
#X msg 788 977 \$1;
#X obj 788 1003 delay;
#X msg 874 1012 \$6;
#X floatatom 744 1095 9 0 0 0 - - - 0;
#X obj 886 962 pack f f f f f f;
#X obj 849 1078 metro;
#X obj 886 935 route cello2;
#X obj 906 1218 cello2;
#X obj 1004 1218 cello2;
#N canvas 0 50 450 250 (subpatch) 0;
#X array cello2 48004 float 2;
#X coords 0 1 48004 -1 200 140 1 0 0;
#X restore 2031 52 graph;
#X obj 446 1131 hsl 128 15 0 5000 0 0 empty empty empty -2 -8 0 10
#fcfcfc #000000 #000000 0 1;
#X floatatom 443 1175 8 0 0 0 - - - 0;
#X obj 346 1160 pack f f f;
#X msg 366 1116 0;
#X msg 413 1105 48004;
#X msg 712 1186 0 \, 48004 1000;
#X msg 1863 415 0 \, 436992 4552;
#X connect 2 0 3 0;
#X connect 3 0 20 0;
#X connect 4 0 7 0;
#X connect 6 0 11 0;
#X connect 7 0 8 0;
#X connect 7 0 9 0;
#X connect 7 0 12 0;
#X connect 8 0 3 0;
#X connect 9 0 10 1;
#X connect 9 0 10 0;
#X connect 10 0 6 0;
#X connect 11 0 3 0;
#X connect 12 0 11 1;
#X connect 12 0 11 0;
#X connect 14 0 15 0;
#X connect 15 0 16 0;
#X connect 16 0 18 0;
#X connect 18 0 19 0;
#X connect 18 0 34 0;
#X connect 18 0 48 0;
#X connect 18 0 110 0;
#X connect 18 0 141 0;
#X connect 19 0 24 0;
#X connect 20 0 0 0;
#X connect 20 0 0 1;
#X connect 23 0 28 0;
#X connect 24 0 25 0;
#X connect 24 0 26 0;
#X connect 24 0 29 0;
#X connect 25 0 33 0;
#X connect 26 0 27 1;
#X connect 26 0 27 0;
#X connect 27 0 23 0;
#X connect 28 0 33 0;
#X connect 29 0 28 1;
#X connect 29 0 28 0;
#X connect 30 0 22 0;
#X connect 30 0 22 1;
#X connect 32 0 33 0;
#X connect 33 0 30 0;
#X connect 34 0 35 0;
#X connect 35 0 36 0;
#X connect 41 0 46 0;
#X connect 42 0 43 0;
#X connect 42 0 44 0;
#X connect 42 0 47 0;
#X connect 43 0 124 0;
#X connect 44 0 45 1;
#X connect 44 0 45 0;
#X connect 45 0 41 0;
#X connect 46 0 124 0;
#X connect 47 0 46 1;
#X connect 47 0 46 0;
#X connect 48 0 42 0;
#X connect 50 0 52 0;
#X connect 51 0 50 0;
#X connect 52 0 53 0;
#X connect 52 0 53 1;
#X connect 54 0 55 0;
#X connect 54 0 56 2;
#X connect 55 0 57 0;
#X connect 56 0 50 0;
#X connect 57 0 56 0;
#X connect 58 0 56 1;
#X connect 59 0 61 0;
#X connect 60 0 14 0;
#X connect 63 0 62 0;
#X connect 63 0 62 1;
#X connect 64 0 40 0;
#X connect 64 0 40 1;
#X connect 66 0 81 0;
#X connect 67 0 65 0;
#X connect 67 0 65 1;
#X connect 68 0 67 0;
#X connect 70 0 92 0;
#X connect 71 0 76 0;
#X connect 71 0 95 0;
#X connect 73 0 72 0;
#X connect 73 0 72 1;
#X connect 77 0 78 3;
#X connect 77 0 96 0;
#X connect 78 0 79 0;
#X connect 78 1 79 1;
#X connect 78 2 79 2;
#X connect 79 0 80 0;
#X connect 80 0 73 0;
#X connect 81 0 78 0;
#X connect 81 0 68 0;
#X connect 82 0 96 0;
#X connect 83 0 84 1;
#X connect 83 0 84 0;
#X connect 84 0 82 0;
#X connect 84 0 98 0;
#X connect 85 0 86 0;
#X connect 85 0 86 1;
#X connect 87 0 88 0;
#X connect 87 0 89 2;
#X connect 88 0 90 0;
#X connect 89 0 92 0;
#X connect 90 0 89 0;
#X connect 91 0 89 1;
#X connect 92 0 85 0;
#X connect 93 0 94 0;
#X connect 93 0 96 1;
#X connect 95 0 77 0;
#X connect 95 0 66 0;
#X connect 95 0 83 0;
#X connect 95 0 93 0;
#X connect 96 0 81 0;
#X connect 97 0 75 0;
#X connect 98 0 97 0;
#X connect 100 0 99 0;
#X connect 100 0 99 1;
#X connect 101 0 100 0;
#X connect 102 0 107 0;
#X connect 103 0 104 0;
#X connect 103 0 105 0;
#X connect 103 0 108 0;
#X connect 104 0 101 0;
#X connect 105 0 106 1;
#X connect 105 0 106 0;
#X connect 106 0 102 0;
#X connect 107 0 101 0;
#X connect 108 0 107 1;
#X connect 108 0 107 0;
#X connect 109 0 101 0;
#X connect 110 0 103 0;
#X connect 111 0 119 0;
#X connect 112 0 113 0;
#X connect 112 0 113 1;
#X connect 114 0 115 0;
#X connect 114 0 116 2;
#X connect 115 0 117 0;
#X connect 116 0 119 0;
#X connect 117 0 116 0;
#X connect 118 0 116 1;
#X connect 119 0 112 0;
#X connect 121 0 122 0;
#X connect 122 0 120 0;
#X connect 122 0 120 1;
#X connect 123 0 63 0;
#X connect 124 0 64 0;
#X connect 126 0 133 0;
#X connect 127 0 125 0;
#X connect 127 0 125 1;
#X connect 129 0 128 0;
#X connect 129 0 128 1;
#X connect 130 0 131 3;
#X connect 130 0 140 0;
#X connect 131 0 132 0;
#X connect 131 1 132 1;
#X connect 131 2 132 2;
#X connect 132 0 143 0;
#X connect 133 0 131 0;
#X connect 133 0 142 0;
#X connect 134 0 140 0;
#X connect 135 0 136 1;
#X connect 135 0 136 0;
#X connect 136 0 134 0;
#X connect 137 0 138 0;
#X connect 137 0 140 1;
#X connect 139 0 130 0;
#X connect 139 0 126 0;
#X connect 139 0 135 0;
#X connect 139 0 137 0;
#X connect 140 0 133 0;
#X connect 141 0 139 0;
#X connect 142 0 127 0;
#X connect 143 0 129 0;
#X connect 145 0 146 0;
#X connect 145 0 147 2;
#X connect 146 0 148 0;
#X connect 147 0 142 0;
#X connect 148 0 147 0;
#X connect 149 0 147 1;
#X connect 150 0 142 0;
#X connect 151 0 124 0;
