#N canvas 186 224 1638 642 12;
#X obj 344 597 dac~;
#X text 552 400 length of geiger sound file: ca 0.033 sec;
#X msg 464 400 0 \, 1585 33;
#X obj 343 521 geiger_counter;
#X obj 343 285 route geiger;
#N canvas 0 50 450 250 (subpatch) 0;
#X array geiger 1585 float 2;
#X coords 0 1 1585 -1 200 140 1;
#X restore 713 50 graph;
#X msg 343 413 stop;
#X obj 343 334 pack f f f f f;
#X msg 463 361 \$3 \$4 \$5;
#X msg 343 363 \$1;
#X obj 343 389 delay;
#X obj 343 462 metro;
#X msg 409 362 \$2;
#X text 40 32 turn audio on and off;
#X msg 343 95 listen 6666;
#X obj 343 130 netreceive -u -b;
#X obj 343 170 oscparse;
#X text 277 31 receive OSC (https://hvc.berlin/Puredata/using-osc-in-pure-data/)
;
#X obj 343 210 list trim;
#X obj 1107 294 route beep;
#X obj 985 329 print;
#X obj 344 554 *~ 0.4;
#N canvas 0 50 450 250 (subpatch) 0;
#X array schrill 24476 float 2;
#X coords 0 1 24476 -1 200 140 1 0 0;
#X restore 1029 48 graph;
#X obj 1108 601 dac~;
#X msg 1107 417 stop;
#X obj 1107 338 pack f f f f f;
#X msg 1227 365 \$3 \$4 \$5;
#X msg 1107 367 \$1;
#X obj 1107 393 delay;
#X obj 1107 466 metro;
#X msg 1173 366 \$2;
#X obj 1108 558 *~ 0.4;
#X text 1316 404 length of schrill_kurz sound file: ca 0.555 sec;
#X msg 1228 404 0 \, 24476 555;
#X obj 1107 525 schrill;
#X obj 1557 279 route midi;
#X obj 1557 303 mtof;
#X obj 1557 327 osc~;
#X obj 1558 365 dac~;
#N canvas 0 50 450 250 (subpatch) 0;
#X array sound5 436992 float 2;
#X coords 0 1 436992 -1 200 140 1 0 0;
#X restore 1317 48 graph;
#N canvas 0 50 450 250 (subpatch) 0;
#X array sound6 284770 float 2;
#X coords 0 1 284770 -1 200 140 1 0 0;
#X restore 1562 51 graph;
#X obj 1723 585 dac~;
#X msg 1722 401 stop;
#X obj 1722 322 pack f f f f f;
#X msg 1842 349 \$3 \$4 \$5;
#X msg 1722 351 \$1;
#X obj 1722 377 delay;
#X obj 1722 450 metro;
#X msg 1788 350 \$2;
#X obj 1723 542 *~ 0.4;
#X obj 1722 509 sound5;
#X obj 1722 278 route string_sound;
#X text 1963 389 length of sound5 sound file: ca 4.552 sec length of
sound6 sound file: ca 2.966 sec;
#X msg 1843 388 0 \, 436992 4552;
#X obj 1807 509 sound6;
#X msg 1843 419 0 \, 284770 2966;
#X obj 1807 541 *~ 0.4;
#X obj 1807 582 dac~;
#X obj 1964 487 hsl 128 15 0 5000 0 0 empty empty empty -2 -8 0 10
#fcfcfc #000000 #000000 0 1;
#X floatatom 1961 531 8 0 0 0 - - - 0;
#X obj 1864 516 pack f f f;
#X msg 1884 472 0;
#X msg 1931 461 284770;
#X obj 48 69 bng 15 250 50 1 empty empty empty 17 7 0 10 #fcfcfc #000000
#000000;
#X obj 343 70 bng 15 250 50 1 empty empty empty 17 7 0 10 #fcfcfc #000000
#000000;
#X msg 48 108 \; pd dsp 1;
#X connect 2 0 3 0;
#X connect 3 0 21 0;
#X connect 4 0 7 0;
#X connect 6 0 11 0;
#X connect 7 0 8 0;
#X connect 7 0 9 0;
#X connect 7 0 12 0;
#X connect 8 0 3 0;
#X connect 9 0 10 1;
#X connect 9 0 10 0;
#X connect 10 0 6 0;
#X connect 11 0 3 0;
#X connect 12 0 11 1;
#X connect 12 0 11 0;
#X connect 14 0 15 0;
#X connect 15 0 16 0;
#X connect 16 0 18 0;
#X connect 18 0 4 0;
#X connect 18 0 19 0;
#X connect 18 0 35 0;
#X connect 18 0 51 0;
#X connect 19 0 20 0;
#X connect 19 0 25 0;
#X connect 21 0 0 0;
#X connect 21 0 0 1;
#X connect 24 0 29 0;
#X connect 25 0 26 0;
#X connect 25 0 27 0;
#X connect 25 0 30 0;
#X connect 26 0 34 0;
#X connect 27 0 28 1;
#X connect 27 0 28 0;
#X connect 28 0 24 0;
#X connect 29 0 34 0;
#X connect 30 0 29 1;
#X connect 30 0 29 0;
#X connect 31 0 23 0;
#X connect 31 0 23 1;
#X connect 33 0 34 0;
#X connect 34 0 31 0;
#X connect 35 0 36 0;
#X connect 36 0 37 0;
#X connect 42 0 47 0;
#X connect 43 0 44 0;
#X connect 43 0 45 0;
#X connect 43 0 48 0;
#X connect 44 0 50 0;
#X connect 45 0 46 1;
#X connect 45 0 46 0;
#X connect 46 0 42 0;
#X connect 47 0 50 0;
#X connect 48 0 47 1;
#X connect 48 0 47 0;
#X connect 49 0 41 0;
#X connect 49 0 41 1;
#X connect 50 0 49 0;
#X connect 51 0 43 0;
#X connect 53 0 50 0;
#X connect 54 0 56 0;
#X connect 55 0 54 0;
#X connect 56 0 57 0;
#X connect 56 0 57 1;
#X connect 58 0 59 0;
#X connect 58 0 60 2;
#X connect 59 0 61 0;
#X connect 60 0 54 0;
#X connect 61 0 60 0;
#X connect 62 0 60 1;
#X connect 63 0 65 0;
#X connect 64 0 14 0;
